<svg viewBox="0 0 64 64" fill="none" xmlns="http://www.w3.org/2000/svg">
<path d="M19.5776 26.892L32.0076 14.4671L44.4426 26.9021L51.6711 19.6686L32.0076 0L12.3441 19.6635L19.5776 26.892Z" fill="#F3BA2F"/>
<path d="M0 32.0025L7.2285 24.7689L14.462 32.0025L7.2285 39.231L0 32.0025Z" fill="#F3BA2F"/>
<path d="M19.5776 37.108L32.0076 49.5379L44.4426 37.1029L51.6762 44.3263L32.0126 63.9949L12.3441 44.3415L19.5776 37.108Z" fill="#F3BA2F"/>
<path d="M49.5379 32.0025L56.7664 24.7689L64 31.9974L56.7664 39.236L49.5379 32.0025Z" fill="#F3BA2F"/>
<path d="M39.3422 31.9975L32.0076 24.6578L26.5837 30.0817L25.9569 30.7035L24.6729 31.9874L32.0076 39.317L39.3422 32.0026V31.9975Z" fill="#F3BA2F"/>
</svg>
