<svg viewBox="11 11 66 66" fill="none" xmlns="http://www.w3.org/2000/svg">
<path d="M74.4613 34.8954C79.3314 51.8786 69.5097 69.5949 52.5248 74.466C35.5468 79.333 17.8297 69.5119 12.9609 52.5291C8.08813 35.5452 17.9079 17.8277 34.8885 12.9591C51.8725 8.08849 69.5898 17.9118 74.4604 34.8959L74.4613 34.8954Z" fill="#4AC645"/>
<path d="M53.6495 32.7082C52.0713 28.7027 48.1191 28.3414 43.5166 29.2355L41.8779 23.5213L38.399 24.5195L39.9945 30.0831C39.081 30.3449 38.1516 30.6309 37.2283 30.9157L35.6229 25.3151L32.1465 26.3118L33.7833 32.0248C33.0346 32.2561 32.2991 32.4822 31.5782 32.6894L31.5726 32.6718L26.7749 34.0458L27.841 37.7604C27.841 37.7604 30.3955 36.9749 30.3663 37.0344C31.7753 36.6309 32.4693 37.3168 32.8041 37.9849L34.6711 44.4945C34.7685 44.4671 34.8964 44.4348 35.0457 44.4133L34.6793 44.5186L37.2925 53.6389C37.3578 54.1 37.2999 54.8817 36.3161 55.1656C36.3719 55.1923 33.7875 55.8899 33.7875 55.8899L34.288 60.2428L38.8152 58.9443C39.6578 58.7037 40.4907 58.4803 41.305 58.2527L42.9641 64.0324L46.4388 63.0367L44.7999 57.318C45.7586 57.0647 46.684 56.8076 47.5851 56.5483L49.2157 62.2406L52.6938 61.2429L51.0407 55.4735C56.792 53.4612 60.4632 50.814 59.3956 45.1788C58.538 40.6395 55.8932 39.2624 52.3447 39.4163C54.0659 37.8094 54.8079 35.6386 53.6486 32.7087L53.6495 32.7082ZM52.3259 46.4616C53.5653 50.7804 46.0308 52.4101 43.6728 53.0879L41.478 45.4304C43.8361 44.7548 51.0327 41.9578 52.3267 46.4611L52.3259 46.4616ZM47.6095 36.1227C48.7351 40.0523 42.4363 41.3622 40.4719 41.9259L38.4808 34.9811C40.4451 34.4174 46.4348 32.0239 47.6095 36.1227Z" fill="white"/>
</svg>
