<svg viewBox="0 0 100 100" fill="none" xmlns="http://www.w3.org/2000/svg">
<g clip-path="url(#clip0)">
<path d="M98.4992 62.0954C91.8211 88.8813 64.6899 105.181 37.9008 98.5032C11.1242 91.8251 -5.17733 64.6938 1.50236 37.9094C8.17736 11.1204 35.3071 -5.18274 62.0883 1.49539C88.8758 8.17351 105.176 35.3079 98.4977 62.0954H98.4992Z" fill="#F7931A"/>
<path d="M72.0461 42.8765C73.0399 36.2234 67.9743 32.6468 61.0477 30.2609L63.2946 21.2484L57.8071 19.8812L55.6196 28.6562C54.179 28.2968 52.6977 27.9578 51.2258 27.6218L53.429 18.789L47.9461 17.4218L45.6977 26.4312C44.504 26.1593 43.3321 25.8906 42.1946 25.6078L42.2008 25.5796L34.6352 23.6906L33.1758 29.5499C33.1758 29.5499 37.2461 30.4828 37.1602 30.5406C39.3821 31.0953 39.7852 32.5656 39.7165 33.7312L37.1571 43.9984C37.3102 44.0374 37.5086 44.0937 37.7274 44.1812L37.1493 44.0374L33.5602 58.4203C33.2883 59.0953 32.5993 60.1077 31.0461 59.7234C31.1008 59.8031 27.0586 58.7281 27.0586 58.7281L24.3352 65.0093L31.4758 66.789C32.804 67.1218 34.1055 67.4702 35.3852 67.7984L33.1149 76.9156L38.5946 78.2828L40.8446 69.264C42.3399 69.6703 43.793 70.0452 45.2149 70.3984L42.9743 79.3749L48.4602 80.7421L50.7305 71.6437C60.0852 73.414 67.1211 72.6999 70.079 64.2406C72.4649 57.4281 69.9618 53.4984 65.0399 50.9343C68.6243 50.1046 71.3243 47.7468 72.0446 42.8765H72.0461ZM59.5102 60.4531C57.8133 67.2656 46.3446 63.5843 42.6243 62.6593L45.6368 50.5828C49.3555 51.5109 61.279 53.3484 59.5118 60.4531H59.5102ZM61.2055 42.7781C59.6586 48.9749 50.1118 45.8265 47.0133 45.0546L49.7446 34.1015C52.843 34.8734 62.818 36.314 61.2055 42.7781Z" fill="white"/>
</g>
<defs>
<clipPath id="clip0">
<rect width="100" height="100" fill="white"/>
</clipPath>
</defs>
</svg>
