<svg width="40" height="40" viewBox="0 0 40 40" fill="none" xmlns="http://www.w3.org/2000/svg">
<path d="M12.2317 16.8083L20 9.04L27.772 16.8117L32.292 12.2917L20 0L7.712 12.288L12.2318 16.808L12.2317 16.8083ZM0 20L4.52016 15.4792L9.04 19.999L4.51984 24.5192L0 20ZM12.2317 23.1922L20 30.96L27.7718 23.1885L32.2942 27.7061L32.292 27.7085L20 40L7.712 27.712L7.7056 27.7056L12.2322 23.1917L12.2317 23.1922ZM30.96 20.0019L35.4802 15.4818L40 20.0016L35.48 24.5218L30.96 20.0019Z" fill="#F3BA2F"/>
<path d="M24.5844 19.9972H24.5863L20.0001 15.4106L16.6102 18.7996L16.2207 19.1892L15.4175 19.9925L15.4111 19.9988L15.4175 20.0053L20.0001 24.5885L24.5866 20.002L24.5888 19.9994L24.5847 19.9972" fill="#F3BA2F"/>
</svg>
