<svg width="40" height="40" viewBox="0 0 40 40" fill="none" xmlns="http://www.w3.org/2000/svg">
<g clip-path="url(#clip0)">
<path d="M39.3678 24.8772C36.6967 35.5915 25.8448 42.1121 15.1291 39.4403C4.41792 36.7691 -2.10264 25.9165 0.569674 15.203C3.23964 4.48744 14.0916 -2.03361 24.8039 0.637531C35.5188 3.30867 42.039 14.1625 39.3675 24.8774L39.3677 24.8772H39.3678Z" fill="#F7931A"/>
<path d="M28.8119 17.1745C29.21 14.5129 27.1836 13.0822 24.4128 12.1278L25.3117 8.52249L23.117 7.97564L22.242 11.486C21.665 11.3421 21.0725 11.2065 20.4836 11.0721L21.365 7.53856L19.1717 6.9917L18.2723 10.5958C17.7948 10.4871 17.3259 10.3797 16.8709 10.2665L16.8735 10.2552L13.847 9.49939L13.2632 11.8434C13.2632 11.8434 14.8914 12.2167 14.8571 12.2397C15.7458 12.4615 15.9065 13.0498 15.8799 13.5161L14.8559 17.6234C14.9171 17.6389 14.9965 17.6614 15.0841 17.6966C15.0109 17.6784 14.933 17.6586 14.8521 17.6392L13.4169 23.393C13.3083 23.663 13.0326 24.0682 12.4113 23.9143C12.4333 23.9462 10.8162 23.5163 10.8162 23.5163L9.72656 26.0284L12.5826 26.7404C13.1139 26.8737 13.6345 27.0131 14.1473 27.1442L13.2391 30.7908L15.4312 31.3377L16.3306 27.7297C16.9295 27.8923 17.5107 28.0423 18.0796 28.1836L17.1833 31.7746L19.378 32.3214L20.2861 28.6816C24.0285 29.3899 26.8425 29.1043 28.0269 25.7193C28.9813 22.994 27.9794 21.4221 26.0105 20.397C27.4445 20.0663 28.5247 19.1231 28.8127 17.1748L28.812 17.1743L28.8119 17.1745ZM23.7976 24.2058C23.1193 26.9311 18.5308 25.4579 17.0431 25.0885L18.2482 20.2573C19.7358 20.6287 24.5064 21.3636 23.7977 24.2058H23.7976ZM24.4763 17.135C23.8576 19.6139 20.0385 18.3545 18.7996 18.0457L19.8922 13.6641C21.1311 13.9729 25.1208 14.5493 24.4765 17.135H24.4763Z" fill="white"/>
</g>
<defs>
<clipPath id="clip0">
<rect width="40" height="40" rx="20" fill="white"/>
</clipPath>
</defs>
</svg>
