<svg width="54" height="54" viewBox="0 0 54 54" fill="none" xmlns="http://www.w3.org/2000/svg">
<rect width="54" height="54" rx="20" fill="#C2A633"/>
<path d="M27.2424 28.4002H34.7601C34.9204 28.4002 34.996 28.4002 35.0076 28.19C35.0691 27.4253 35.0691 26.6561 35.0076 25.8904C35.0076 25.7417 34.9337 25.6803 34.7726 25.6803H19.811C19.6258 25.6803 19.576 25.7417 19.576 25.9153V28.1161C19.576 28.4002 19.576 28.4002 19.8724 28.4002H27.2424V28.4002ZM34.1681 23.1082C34.1894 23.0521 34.1894 22.9907 34.1681 22.9355C34.0425 22.6621 33.8938 22.4013 33.7211 22.1565C33.4612 21.738 33.1549 21.3525 32.8059 21.0062C32.6412 20.797 32.4507 20.6091 32.237 20.4497C31.1668 19.539 29.8946 18.8944 28.5271 18.5703C27.8371 18.4154 27.132 18.3415 26.4251 18.3477H19.7852C19.6 18.3477 19.5751 18.4216 19.5751 18.5828V22.972C19.5751 23.1572 19.5751 23.207 19.8101 23.207H34.079C34.079 23.207 34.2028 23.1821 34.2277 23.1082H34.1672H34.1681ZM34.1681 30.9722C33.958 30.9491 33.7461 30.9491 33.5359 30.9722H19.8235C19.6383 30.9722 19.576 30.9722 19.576 31.2197V35.511C19.576 35.7087 19.576 35.7585 19.8235 35.7585H26.1544C26.4571 35.7817 26.7598 35.7603 27.0563 35.6971C27.9751 35.6312 28.8788 35.4318 29.7406 35.1033C30.054 34.9946 30.3567 34.8531 30.6425 34.683H30.7288C32.213 33.9111 33.4184 32.6985 34.1787 31.21C34.1787 31.21 34.2651 31.023 34.1681 30.974V30.9722ZM17.0911 37.9834V37.9095V35.0285V34.0518V31.1459C17.0911 30.9847 17.0911 30.9607 16.8935 30.9607H14.2101C14.0614 30.9607 14 30.9607 14 30.763V28.4135H16.8686C17.0288 28.4135 17.0911 28.4135 17.0911 28.2034V25.8788C17.0911 25.7301 17.0911 25.6936 16.8935 25.6936H14.2101C14.0614 25.6936 14 25.6936 14 25.496V23.3201C14 23.1839 14 23.1474 14.1976 23.1474H16.8561C17.0413 23.1474 17.0911 23.1474 17.0911 22.9123V16.2475C17.0911 16.0499 17.0911 16 17.3386 16H26.6121C27.2851 16.0267 27.9537 16.1006 28.6152 16.2226C29.9783 16.4745 31.2879 16.9615 32.4854 17.6569C33.2795 18.1243 34.0105 18.6887 34.6613 19.3386C35.151 19.847 35.5926 20.3972 35.9843 20.983C36.3733 21.5769 36.6965 22.2117 36.9503 22.8749C36.9814 23.0476 37.147 23.1643 37.3197 23.1349H39.533C39.817 23.1349 39.817 23.1349 39.8295 23.4073V25.4354C39.8295 25.6331 39.7556 25.6829 39.5571 25.6829H37.8504C37.6776 25.6829 37.6278 25.6829 37.6403 25.9055C37.7079 26.6587 37.7079 27.4146 37.6403 28.1678C37.6403 28.3779 37.6402 28.4028 37.8762 28.4028H39.8286C39.915 28.5141 39.8286 28.6254 39.8286 28.7376C39.8411 28.8809 39.8411 29.026 39.8286 29.1694V30.666C39.8286 30.8761 39.7672 30.9384 39.5811 30.9384H37.2441C37.0811 30.9073 36.9227 31.0114 36.8853 31.1735C36.3288 32.6202 35.4385 33.9174 34.2883 34.9572C33.868 35.3356 33.4264 35.6917 32.9653 36.0203C32.4703 36.3052 31.9886 36.6016 31.4811 36.8367C30.5472 37.2569 29.5679 37.5667 28.5627 37.7635C27.6083 37.9344 26.6405 38.0119 25.6692 37.9985H17.0876V37.9861L17.0911 37.9834Z" fill="#FEFEFD"/>
<g clip-path="url(#clip0)">
<rect x="12" y="9" width="28" height="35" fill="white"/>
<path d="M25.5998 18.475H22.0278V25.5173H27.6476V28.4658H22.0278V35.5075H25.7748C26.7376 35.5075 33.6788 35.6163 33.6681 27.3145C33.6573 19.0128 26.9358 18.475 25.5998 18.475Z" fill="#C2A633"/>
<path d="M25 2C11.1928 2 0 13.1928 0 27C0 40.8073 11.1928 52 25 52C38.8073 52 50 40.8073 50 27C50 13.1928 38.8073 2 25 2ZM25.9823 40.5025H16.9285V28.466H13.737V25.5175H16.9283V13.4802H24.6988C26.537 13.4802 38.7128 13.0985 38.7128 27.2173C38.7128 41.5695 25.9825 40.5025 25.9825 40.5025H25.9823Z" fill="#C2A633"/>
</g>
<defs>
<clipPath id="clip0">
<rect width="50" height="50" fill="white" transform="translate(2 2)"/>
</clipPath>
</defs>
</svg>
