<svg width="37" height="37" viewBox="0 0 37 37" fill="none" xmlns="http://www.w3.org/2000/svg">
<path opacity="0.2" fill-rule="evenodd" clip-rule="evenodd" d="M7.54346 18.5C7.54346 24.5417 12.4582 29.4565 18.5 29.4565C24.5417 29.4565 29.4565 24.5417 29.4565 18.5C29.4565 12.4582 24.5417 7.54346 18.5 7.54346C12.4582 7.54346 7.54346 12.4582 7.54346 18.5ZM9.10867 18.5C9.10867 13.3215 13.3215 9.10867 18.5 9.10867C23.6785 9.10867 27.8913 13.3215 27.8913 18.5C27.8913 23.6785 23.6785 27.8913 18.5 27.8913C13.3215 27.8913 9.10867 23.6785 9.10867 18.5Z" fill="#0B8CAD"/>
<path opacity="0.5" fill-rule="evenodd" clip-rule="evenodd" d="M18.5 21.6304C20.2289 21.6304 21.6304 20.2288 21.6304 18.4999C21.6304 16.7711 20.2289 15.3695 18.5 15.3695C16.7711 15.3695 15.3696 16.7711 15.3696 18.4999C15.3696 20.2288 16.7711 21.6304 18.5 21.6304Z" fill="#0B8CAD"/>
<path fill-rule="evenodd" clip-rule="evenodd" d="M34.8346 10.933C34.419 11.253 33.9659 11.527 33.4776 11.7359C34.4253 13.8341 34.9348 16.131 34.9348 18.5C34.9348 27.5626 27.5626 34.9348 18.5 34.9348C9.43739 34.9348 2.06522 27.5626 2.06522 18.5C2.06522 9.43739 9.43739 2.06522 18.5 2.06522C21.6477 2.06522 24.721 2.98791 27.3505 4.66817C27.2034 5.07983 27.1087 5.51652 27.1087 5.97826C27.1087 8.13591 28.8641 9.8913 31.0217 9.8913C33.1794 9.8913 34.9348 8.13591 34.9348 5.97826C34.9348 3.82061 33.1794 2.06522 31.0217 2.06522C29.8885 2.06522 28.8743 2.55748 28.159 3.32991C25.2868 1.50252 21.9333 0.5 18.5 0.5C8.57496 0.5 0.5 8.57496 0.5 18.5C0.5 28.425 8.57496 36.5 18.5 36.5C28.425 36.5 36.5 28.425 36.5 18.5C36.5 15.8462 35.9185 13.2722 34.8346 10.933Z" fill="#0B8CAD"/>
</svg>
