<svg viewBox="0 0 100 100" fill="none" xmlns="http://www.w3.org/2000/svg">
<g clip-path="url(#clip0)">
<path d="M100 49.9996C100 77.614 77.6147 99.9999 50.0006 99.9999C22.3862 99.9999 0.000610352 77.614 0.000610352 49.9996C0.000610352 22.3856 22.3862 -6.10352e-05 50.0006 -6.10352e-05C77.6144 -6.10352e-05 100 22.3856 100 49.9996Z" fill="#BEBEBE"/>
<path d="M89.3846 50.0002C89.3846 71.7502 71.7519 89.3845 50.0008 89.3845C28.2499 89.3845 10.616 71.7502 10.616 50.0002C10.616 28.2484 28.2499 10.6154 50.0008 10.6154C71.7522 10.6154 89.3846 28.2481 89.3846 50.0002Z" fill="#BEBEBE"/>
<path d="M47.0782 63.3567L50.3258 51.1279L58.0147 48.3189L59.9271 41.1321L59.8618 40.9538L52.2933 43.7188L57.7465 23.1852H42.281L35.1495 49.982L29.1951 52.1572L27.2277 59.5664L33.1774 57.393L28.9743 73.1855H70.1341L72.7728 63.3567H47.0782Z" fill="white"/>
</g>
<defs>
<clipPath id="clip0">
<rect width="100" height="100" fill="white"/>
</clipPath>
</defs>
</svg>
