<svg width="512" height="512" viewBox="0 0 512 512" fill="none" xmlns="http://www.w3.org/2000/svg">
<rect width="512" height="512" rx="256" fill="#008753"/>
<path d="M336.248 387.916C331.689 387.916 327.55 387.251 323.95 385.952C320.374 384.675 316.948 382.583 313.787 379.754C310.607 376.917 307.574 373.522 304.809 369.655C301.992 365.712 299.174 361.697 296.451 357.72L259.117 300.486H195.901V359.174C195.901 368.692 193.695 375.935 189.352 380.736C184.963 385.563 179.491 387.908 172.628 387.908C165.524 387.908 160.006 385.536 155.749 380.66C151.5 375.815 149.348 368.582 149.348 359.174V300.486H113.166C103.701 300.486 96 292.785 96 283.32C96 273.855 103.701 266.154 113.166 266.154H149.348V236.858H113.166C103.701 236.861 96 229.16 96 219.699C96 210.239 103.701 202.534 113.166 202.534H149.348V159.757C149.348 151.49 150.247 144.994 152.018 140.458C154.231 135.208 157.713 131.152 162.721 127.911C167.729 124.663 172.991 123.085 178.803 123.085C183.294 123.085 187.191 123.817 190.364 125.271C193.623 126.759 196.384 128.693 198.809 131.182C201.279 133.709 203.832 137.025 206.408 141.024C209.056 145.141 211.786 149.428 214.683 154.005L246.756 202.534H317.556V151.826C317.556 142.18 319.622 134.891 323.694 130.151C327.78 125.396 333.158 123.085 340.13 123.085C347.336 123.085 352.862 125.4 357.009 130.162C361.137 134.898 363.226 142.191 363.226 151.826V202.534H399.834C409.299 202.534 417 210.235 417 219.699C417 229.164 409.299 236.861 399.834 236.861H363.226V266.162H399.834C409.299 266.162 417 273.859 417 283.328C417 292.792 409.299 300.486 399.834 300.486H363.226V355.125C363.226 377.189 354.403 387.916 336.248 387.916ZM190.236 289.155H262.188C264.099 289.155 265.885 290.122 266.932 291.724L305.878 351.431C308.477 355.246 311.264 359.193 314.025 363.068C316.306 366.244 318.769 369.016 321.344 371.313C323.418 373.171 325.578 374.508 327.791 375.297C330.167 376.162 333.007 376.593 336.251 376.593C342.85 376.593 351.899 376.593 351.899 355.129V294.821C351.899 291.693 354.441 289.155 357.564 289.155H399.838C403.06 289.155 405.673 286.538 405.673 283.32C405.673 280.102 403.06 277.485 399.838 277.485H357.56C354.433 277.485 351.895 274.947 351.895 271.82V231.196C351.895 228.069 354.433 225.531 357.56 225.531H399.834C403.052 225.531 405.67 222.917 405.67 219.699C405.67 216.482 403.052 213.864 399.834 213.864H357.56C354.433 213.864 351.895 211.326 351.895 208.199V151.826C351.895 143.328 350.029 139.4 348.458 137.599C347.087 136.02 345.029 134.411 340.13 134.411C336.463 134.411 334.193 135.314 332.29 137.531C330.745 139.34 328.894 143.283 328.894 151.822V208.195C328.894 211.322 326.356 213.861 323.229 213.861H243.708C241.804 213.861 240.025 212.905 238.979 211.319L205.173 160.162C202.223 155.516 199.508 151.252 196.875 147.158C194.715 143.793 192.634 141.081 190.693 139.094C189.261 137.618 187.618 136.473 185.654 135.574C183.996 134.815 181.621 134.411 178.803 134.411C175.196 134.411 172.046 135.367 168.881 137.418C165.8 139.415 163.775 141.738 162.514 144.722C161.864 146.384 160.678 150.772 160.678 159.757V208.195C160.678 211.322 158.14 213.861 155.013 213.861H113.166C109.948 213.864 107.33 216.482 107.33 219.699C107.33 222.917 109.948 225.531 113.166 225.531H155.013C158.14 225.531 160.678 228.069 160.678 231.196V271.823C160.678 274.951 158.14 277.489 155.013 277.489H113.166C109.948 277.485 107.33 280.106 107.33 283.32C107.33 286.534 109.948 289.155 113.166 289.155H155.013C158.14 289.155 160.678 291.693 160.678 294.821V359.174C160.678 365.666 161.924 370.52 164.277 373.205C166.343 375.573 168.836 376.585 172.628 376.585C176.265 376.585 178.75 375.554 180.956 373.122C183.316 370.523 184.57 365.696 184.57 359.185V294.821C184.57 291.693 187.108 289.155 190.236 289.155ZM323.221 334.19C321.356 334.19 319.562 333.261 318.493 331.645L296.225 297.94C295.08 296.199 294.978 293.967 295.972 292.135C296.961 290.3 298.884 289.155 300.953 289.155H323.221C326.349 289.155 328.887 291.693 328.887 294.821V328.525C328.887 331.025 327.24 333.231 324.853 333.952C324.313 334.111 323.761 334.19 323.221 334.19ZM311.487 300.486L317.556 309.671V300.486H311.487ZM323.221 277.485H285.755C283.852 277.485 282.073 276.529 281.027 274.943L254.185 234.316C253.033 232.575 252.931 230.343 253.92 228.507C254.91 226.675 256.829 225.527 258.906 225.527H323.221C326.349 225.527 328.887 228.065 328.887 231.192V271.82C328.887 274.951 326.349 277.485 323.221 277.485ZM288.803 266.154H317.556V236.858H269.439L288.803 266.154ZM247.183 277.485H190.236C187.108 277.485 184.57 274.947 184.57 271.82V231.196C184.57 228.069 187.108 225.531 190.236 225.531H220.688C222.599 225.531 224.386 226.498 225.432 228.103L251.93 268.73C253.067 270.471 253.154 272.692 252.168 274.52C251.175 276.352 249.264 277.485 247.183 277.485ZM195.901 266.154H236.725L217.618 236.858H195.901V266.154ZM205.683 213.868H190.236C187.108 213.868 184.57 211.33 184.57 208.203V184.518C184.57 182.011 186.217 179.801 188.619 179.087C191.017 178.377 193.612 179.321 194.979 181.421L210.427 205.106C211.563 206.847 211.658 209.072 210.668 210.899C209.675 212.724 207.764 213.868 205.683 213.868Z" fill="white"/>
</svg>
