<svg width="54" height="54" viewBox="0 0 54 54" fill="none" xmlns="http://www.w3.org/2000/svg">
<rect width="54" height="54" rx="20" fill="#8247E5"/>
<path d="M32.9318 22.724C32.4748 22.4629 31.8872 22.4629 31.365 22.724L27.7092 24.8783L25.2285 26.2493L21.638 28.4036C21.181 28.6647 20.5935 28.6647 20.0712 28.4036L17.2641 26.7062C16.8071 26.4451 16.4807 25.9228 16.4807 25.3353V22.0712C16.4807 21.549 16.7418 21.0267 17.2641 20.7003L20.0712 19.0682C20.5282 18.8071 21.1157 18.8071 21.638 19.0682L24.4451 20.7656C24.9021 21.0267 25.2285 21.549 25.2285 22.1365V24.2908L27.7092 22.8546V20.635C27.7092 20.1128 27.4481 19.5905 26.9258 19.2641L21.7033 16.1958C21.2463 15.9347 20.6588 15.9347 20.1365 16.1958L14.7834 19.3294C14.2611 19.5905 14 20.1128 14 20.635V26.7715C14 27.2938 14.2611 27.816 14.7834 28.1424L20.0712 31.2107C20.5282 31.4718 21.1157 31.4718 21.638 31.2107L25.2285 29.1217L27.7092 27.6855L31.2997 25.5964C31.7567 25.3353 32.3442 25.3353 32.8665 25.5964L35.6736 27.2285C36.1306 27.4896 36.457 28.0119 36.457 28.5994V31.8635C36.457 32.3858 36.1958 32.908 35.6736 33.2344L32.9318 34.8665C32.4748 35.1276 31.8872 35.1276 31.365 34.8665L28.5579 33.2344C28.1009 32.9733 27.7745 32.451 27.7745 31.8635V29.7745L25.2938 31.2107V33.365C25.2938 33.8872 25.5549 34.4095 26.0772 34.7359L31.365 37.8042C31.822 38.0653 32.4095 38.0653 32.9318 37.8042L38.2196 34.7359C38.6766 34.4748 39.003 33.9525 39.003 33.365V27.1632C39.003 26.6409 38.7418 26.1187 38.2196 25.7923L32.9318 22.724Z" fill="#FDFCFF"/>
</svg>
