<svg width="40" height="40" viewBox="0 0 40 40" fill="none" xmlns="http://www.w3.org/2000/svg">
<g clip-path="url(#clip0)">
<path d="M38.4688 12.0497C36.5938 10.3184 34 7.67468 31.8875 5.79968L31.7625 5.71218C31.5545 5.54516 31.32 5.41418 31.0688 5.32468V5.32468C25.975 4.37468 2.26875 -0.0565737 1.80625 -0.000323701C1.67666 0.0178263 1.55278 0.0648129 1.44375 0.137176L1.325 0.230926C1.17878 0.379427 1.06772 0.558829 1 0.755926L0.96875 0.837176V1.28093V1.34968C3.6375 8.78093 14.175 33.1247 16.25 38.8372C16.375 39.2247 16.6125 39.9622 17.0563 39.9997H17.1563C17.3938 39.9997 18.4063 38.6622 18.4063 38.6622C18.4063 38.6622 36.5063 16.7122 38.3375 14.3747C38.5745 14.0867 38.7838 13.777 38.9625 13.4497C39.0081 13.1935 38.9866 12.93 38.9001 12.6846C38.8136 12.4393 38.665 12.2205 38.4688 12.0497V12.0497ZM23.05 14.6059L30.775 8.19968L35.3063 12.3747L23.05 14.6059ZM20.05 14.1872L6.75 3.28718L28.2688 7.25593L20.05 14.1872ZM21.25 17.0434L34.8625 14.8497L19.3 33.5997L21.25 17.0434ZM4.94375 4.37468L18.9375 16.2497L16.9125 33.6122L4.94375 4.37468Z" fill="#FF060A"/>
</g>
<defs>
<clipPath id="clip0">
<rect width="40" height="40" fill="white"/>
</clipPath>
</defs>
</svg>
