<svg width="54" height="54" viewBox="0 0 54 54" fill="none" xmlns="http://www.w3.org/2000/svg">
<rect width="54" height="54" rx="20" fill="#4292E9"/>
<path d="M32.2294 29.9141C32.2294 26.8998 30.4207 25.8662 26.8034 25.4357C24.2196 25.0911 23.7028 24.4021 23.7028 23.1962C23.7028 21.9903 24.5642 21.2154 26.2867 21.2154C27.8369 21.2154 28.6983 21.7321 29.1288 23.024C29.215 23.2824 29.4734 23.4546 29.7318 23.4546H31.1097C31.4543 23.4546 31.7126 23.1962 31.7126 22.8519V22.7657C31.3681 20.8708 29.8178 19.4067 27.8369 19.2345V17.1675C27.8369 16.8229 27.5786 16.5645 27.148 16.4783H25.8561C25.5115 16.4783 25.2531 16.7367 25.1669 17.1675V19.1483C22.5831 19.4929 20.9469 21.2154 20.9469 23.3686C20.9469 26.2108 22.6693 27.3303 26.2867 27.7611C28.6983 28.1917 29.4734 28.7084 29.4734 30.0865C29.4734 31.4646 28.2675 32.412 26.6312 32.412C24.3918 32.412 23.6167 31.4644 23.3583 30.1725C23.2723 29.8281 23.0139 29.6558 22.7555 29.6558H21.2912C20.9469 29.6558 20.6885 29.9141 20.6885 30.2587V30.3449C21.0328 32.498 22.4109 34.0482 25.2531 34.479V36.5461C25.2531 36.8904 25.5115 37.1488 25.9421 37.235H27.234C27.5786 37.235 27.8369 36.9766 27.9231 36.5461V34.479C30.5069 34.0482 32.2294 32.2396 32.2294 29.9141Z" fill="white"/>
<path d="M22.1524 38.9576C15.4345 36.5462 11.9894 29.0532 14.4872 22.4212C15.7791 18.8039 18.6213 16.0479 22.1524 14.756C22.497 14.5838 22.6692 14.3254 22.6692 13.8947V12.6889C22.6692 12.3444 22.497 12.086 22.1524 12C22.0662 12 21.8941 12 21.8079 12.086C13.6259 14.6698 9.14719 23.3688 11.731 31.5508C13.2813 36.3738 16.9848 40.0773 21.8079 41.6276C22.1524 41.7998 22.497 41.6276 22.583 41.2831C22.6692 41.1971 22.6692 41.1109 22.6692 40.9387V39.7328C22.6692 39.4744 22.4108 39.13 22.1524 38.9576ZM31.282 12.086C30.9374 11.9138 30.5928 12.086 30.5068 12.4306C30.4206 12.5168 30.4206 12.6028 30.4206 12.7751V13.9809C30.4206 14.3254 30.679 14.6698 30.9374 14.8422C37.6553 17.2536 41.1005 24.7467 38.6026 31.3786C37.3107 34.9959 34.4685 37.7519 30.9374 39.0438C30.5928 39.216 30.4206 39.4744 30.4206 39.9052V41.1109C30.4206 41.4555 30.5928 41.7138 30.9374 41.7998C31.0236 41.7998 31.1958 41.7998 31.282 41.7138C39.464 39.13 43.9427 30.4311 41.3588 22.2491C39.8086 17.3398 36.0188 13.6363 31.282 12.086Z" fill="white"/>
</svg>
