<svg width="30" height="30" viewBox="0 0 30 30" fill="none" xmlns="http://www.w3.org/2000/svg">
<path d="M15 30C23.2843 30 30 23.2843 30 15C30 6.71573 23.2843 0 15 0C6.71573 0 0 6.71573 0 15C0 23.2843 6.71573 30 15 30Z" fill="#26A17B"/>
<path fill-rule="evenodd" clip-rule="evenodd" d="M16.8018 16.2966V16.2947C16.6986 16.3022 16.1671 16.3341 14.9811 16.3341C14.0343 16.3341 13.3677 16.3059 13.1333 16.2947V16.2975C9.48832 16.1372 6.76769 15.5025 6.76769 14.7431C6.76769 13.9847 9.48832 13.35 13.1333 13.1869V15.6656C13.3714 15.6825 14.0539 15.7228 14.9971 15.7228C16.1286 15.7228 16.6958 15.6759 16.8018 15.6666V13.1888C20.4393 13.3509 23.1533 13.9856 23.1533 14.7431C23.1533 15.5025 20.4393 16.1353 16.8018 16.2966ZM16.8018 12.9309V10.7128H21.8774V7.33032H8.05769V10.7128H13.1333V12.93C9.00832 13.1194 5.90613 13.9369 5.90613 14.9156C5.90613 15.8944 9.00832 16.7109 13.1333 16.9013V24.0094H16.8018V16.8994C20.9202 16.71 24.0149 15.8934 24.0149 14.9156C24.0149 13.9378 20.9202 13.1213 16.8018 12.9309Z" fill="white"/>
</svg>
