<svg width="37" height="37" viewBox="0 0 37 37" fill="none" xmlns="http://www.w3.org/2000/svg">
<g clip-path="url(#clip0)">
<path d="M26.8234 14.6455C26.7657 14.5873 26.6971 14.5412 26.6214 14.5096C26.5458 14.4781 26.4647 14.4619 26.3827 14.4619C26.3008 14.4619 26.2197 14.4781 26.144 14.5096C26.0684 14.5412 25.9998 14.5873 25.9421 14.6455L22.4724 18.1214C22.0435 17.8397 21.5547 17.6623 21.045 17.6032C20.5354 17.5442 20.0189 17.6052 19.537 17.7814C19.0551 17.9576 18.6211 18.244 18.2697 18.6178C17.9183 18.9917 17.6591 19.4425 17.5131 19.9344C17.367 20.4263 17.338 20.9455 17.4283 21.4505C17.5187 21.9556 17.726 22.4325 18.0336 22.8432C18.3412 23.2539 18.7406 23.5869 19.1998 23.8156C19.6591 24.0444 20.1655 24.1626 20.6786 24.1607C21.1108 24.1615 21.539 24.077 21.9385 23.9119C22.338 23.7469 22.7009 23.5046 23.0066 23.199C23.3122 22.8934 23.5545 22.5304 23.7195 22.1309C23.8845 21.7314 23.9691 21.3033 23.9683 20.871C23.9577 20.2013 23.7409 19.5511 23.3476 19.009L26.811 15.5517C26.8738 15.4945 26.9242 15.425 26.9591 15.3475C26.994 15.2701 27.0126 15.1863 27.0137 15.1013C27.0149 15.0164 26.9986 14.9321 26.9659 14.8537C26.9331 14.7753 26.8847 14.7044 26.8234 14.6455ZM22.1248 22.3234C21.8862 22.5607 21.5928 22.7356 21.2705 22.8325C20.9483 22.9294 20.6071 22.9455 20.2772 22.8792C19.9473 22.8129 19.6387 22.6664 19.3789 22.4525C19.1191 22.2387 18.9159 21.9641 18.7874 21.6531C18.659 21.3421 18.6091 21.0042 18.6422 20.6693C18.6754 20.3344 18.7905 20.0129 18.9775 19.7331C19.1644 19.4533 19.4174 19.2238 19.7141 19.0651C20.0108 18.9063 20.3421 18.8231 20.6786 18.8228C21.0844 18.8224 21.4811 18.9425 21.8185 19.1679C22.1559 19.3934 22.4187 19.7139 22.5736 20.089C22.7286 20.464 22.7686 20.8766 22.6887 21.2744C22.6088 21.6722 22.4125 22.0373 22.1248 22.3234Z" fill="#0B8CAD"/>
<path opacity="0.5" d="M3.10687 20.2999C3.10687 20.4646 3.17227 20.6224 3.28867 20.7388C3.40507 20.8552 3.56295 20.9206 3.72756 20.9206H14.4655C14.6301 20.9206 14.788 20.8552 14.9044 20.7388C15.0208 20.6224 15.0862 20.4646 15.0862 20.2999C15.0862 20.1353 15.0208 19.9775 14.9044 19.8611C14.788 19.7447 14.6301 19.6793 14.4655 19.6793H3.72756C3.56295 19.6793 3.40507 19.7447 3.28867 19.8611C3.17227 19.9775 3.10687 20.1353 3.10687 20.2999Z" fill="#0B8CAD"/>
<path opacity="0.5" d="M1.12069 15.7069H11.8586C12.0232 15.7069 12.1811 15.6415 12.2975 15.5251C12.4139 15.4087 12.4793 15.2508 12.4793 15.0862C12.4793 14.9216 12.4139 14.7637 12.2975 14.6473C12.1811 14.5309 12.0232 14.4655 11.8586 14.4655H1.12069C0.956073 14.4655 0.798198 14.5309 0.681796 14.6473C0.565394 14.7637 0.5 14.9216 0.5 15.0862C0.5 15.2508 0.565394 15.4087 0.681796 15.5251C0.798198 15.6415 0.956073 15.7069 1.12069 15.7069Z" fill="#0B8CAD"/>
<path opacity="0.5" d="M12.4793 25.5138C12.4793 25.3491 12.4139 25.1913 12.2975 25.0749C12.1811 24.9585 12.0232 24.8931 11.8586 24.8931H1.12069C0.956073 24.8931 0.798198 24.9585 0.681796 25.0749C0.565394 25.1913 0.5 25.3491 0.5 25.5138C0.5 25.6784 0.565394 25.8362 0.681796 25.9526C0.798198 26.069 0.956073 26.1344 1.12069 26.1344H11.8586C12.0232 26.1344 12.1811 26.069 12.2975 25.9526C12.4139 25.8362 12.4793 25.6784 12.4793 25.5138Z" fill="#0B8CAD"/>
<path d="M32.0993 9.68618L32.751 9.06549C33.0616 9.24166 33.4119 9.33566 33.7689 9.3386C34.1863 9.3386 34.5943 9.21483 34.9414 8.98294C35.2884 8.75105 35.5589 8.42146 35.7186 8.03585C35.8784 7.65023 35.9202 7.22591 35.8387 6.81655C35.7573 6.40718 35.5563 6.03115 35.2612 5.73601C34.966 5.44088 34.59 5.23989 34.1806 5.15846C33.7713 5.07703 33.347 5.11882 32.9613 5.27855C32.5757 5.43828 32.2461 5.70876 32.0143 6.05581C31.7824 6.40285 31.6586 6.81087 31.6586 7.22825C31.6594 7.5545 31.7382 7.87583 31.8883 8.16549L31.1931 8.86067C28.5104 6.51304 25.1035 5.15685 21.5414 5.0186V2.36205H23.7758C23.9405 2.36205 24.0983 2.29665 24.2147 2.18025C24.3311 2.06385 24.3965 1.90597 24.3965 1.74136C24.3965 1.57674 24.3311 1.41886 24.2147 1.30246C24.0983 1.18606 23.9405 1.12067 23.7758 1.12067H18.1276C17.9629 1.12067 17.8051 1.18606 17.6887 1.30246C17.5723 1.41886 17.5069 1.57674 17.5069 1.74136C17.5069 1.90597 17.5723 2.06385 17.6887 2.18025C17.8051 2.29665 17.9629 2.36205 18.1276 2.36205H20.3V5.0186C16.5615 5.16415 12.9988 6.64384 10.2572 9.18963C10.1665 9.2746 10.1033 9.38486 10.076 9.50613C10.0486 9.6274 10.0583 9.7541 10.1038 9.8698C10.1492 9.9855 10.2284 10.0849 10.331 10.1551C10.4336 10.2252 10.555 10.263 10.6793 10.2634H15.1234C15.2253 10.2629 15.3255 10.2373 15.4151 10.1889C17.1075 9.27967 18.9996 8.80611 20.9207 8.81101C22.6833 8.81429 24.4229 9.21265 26.0113 9.97681C27.5997 10.741 28.9966 11.8515 30.0993 13.2267C31.202 14.6018 31.9824 16.2067 32.3831 17.9232C32.7838 19.6398 32.7946 21.4243 32.4148 23.1456C32.0349 24.8668 31.274 26.481 30.1881 27.8695C29.1021 29.2579 27.7188 30.3853 26.1397 31.1686C24.5607 31.952 22.8261 32.3714 21.0636 32.396C19.3011 32.4207 17.5555 32.0499 15.9551 31.311C15.8733 31.2737 15.7844 31.2547 15.6945 31.2551H11.0827C10.9567 31.2553 10.8338 31.2939 10.7302 31.3656C10.6266 31.4373 10.5473 31.5389 10.5029 31.6568C10.4584 31.7747 10.4509 31.9033 10.4813 32.0256C10.5117 32.1479 10.5786 32.258 10.6731 32.3414C13.7166 34.9466 17.6452 36.2819 21.6459 36.0711C25.6465 35.8603 29.413 34.1193 32.1658 31.2087C34.9186 28.298 36.447 24.4403 36.4346 20.4341C36.4222 16.4279 34.87 12.5798 32.0993 9.68618ZM33.7689 6.33446C33.9994 6.33446 34.2204 6.42601 34.3834 6.58897C34.5464 6.75194 34.6379 6.97296 34.6379 7.20343C34.6379 7.43389 34.5464 7.65491 34.3834 7.81788C34.2204 7.98084 33.9994 8.07239 33.7689 8.07239C33.5751 8.07252 33.3869 8.00688 33.2351 7.88618C33.2142 7.83931 33.1871 7.79546 33.1545 7.75584C33.1207 7.73092 33.0855 7.70811 33.0489 7.68756C32.9516 7.54489 32.8997 7.37613 32.9 7.20343C32.9 6.97296 32.9915 6.75194 33.1545 6.58897C33.3175 6.42601 33.5385 6.33446 33.7689 6.33446Z" fill="#0B8CAD"/>
</g>
<defs>
<clipPath id="clip0">
<rect width="36" height="36" fill="white" transform="translate(0.5 0.5)"/>
</clipPath>
</defs>
</svg>
