<svg width="629" height="635" viewBox="0 0 629 635" fill="none" xmlns="http://www.w3.org/2000/svg">
<path d="M314.49 602.073C469.864 602.073 595.819 474.811 595.819 317.825C595.819 160.839 469.864 33.5762 314.49 33.5762C159.116 33.5762 33.1611 160.839 33.1611 317.825C33.1611 474.811 159.116 602.073 314.49 602.073Z" fill="#FEDE7E"/>
<path fill-rule="evenodd" clip-rule="evenodd" d="M554.928 297.563C581.466 221.423 607.268 151.919 567.726 123.278L484.437 158.468C432.656 100.932 377.178 91.9271 319.126 116.757C257.052 92.9014 199.091 94.8154 150.768 157.113L71.2508 123.514C32.7133 151.423 56.2329 218.137 82.0179 291.982C67.3024 350.238 79.085 404.903 130.301 465.512C176.336 499.67 195.879 491.132 247.751 549.544C286.5 586.666 354.331 585.265 383.825 551.608C430.762 499.958 451.132 499.699 496.248 470.66C547.875 416.658 565.541 358.742 554.933 297.557L554.928 297.563Z" stroke="#FEDE7E" stroke-width="0.01389" stroke-miterlimit="2.61313" stroke-linecap="round" stroke-linejoin="round"/>
<path fill-rule="evenodd" clip-rule="evenodd" d="M554.928 297.563C581.466 221.423 607.268 151.919 567.726 123.278L484.437 158.468C432.656 100.932 377.178 91.9271 319.126 116.757C257.052 92.9014 199.091 94.8154 150.768 157.113L71.2508 123.514C32.7133 151.423 56.2329 218.137 82.0179 291.982C67.3024 350.238 79.085 404.903 130.301 465.512C176.336 499.67 195.879 491.132 247.751 549.544C286.5 586.666 354.331 585.265 383.825 551.608C430.762 499.958 451.132 499.699 496.248 470.66C547.875 416.658 565.541 358.742 554.933 297.557L554.928 297.563Z" fill="black"/>
<path fill-rule="evenodd" clip-rule="evenodd" d="M196.355 233.752C221.917 230.806 236.193 237.839 243.714 250.84C214.517 273.37 198.489 268.187 196.355 233.752Z" fill="white"/>
<path fill-rule="evenodd" clip-rule="evenodd" d="M213.838 244.805C220.571 244.027 224.325 245.884 226.305 249.302C218.62 255.235 214.397 253.868 213.838 244.805Z" fill="black"/>
<path fill-rule="evenodd" clip-rule="evenodd" d="M441.595 233.752C416.032 230.806 401.756 237.839 394.236 250.84C423.433 273.37 439.461 268.187 441.595 233.752Z" fill="white"/>
<path fill-rule="evenodd" clip-rule="evenodd" d="M221.431 390.845L319.384 346.742L415.921 391.566C399.392 437.047 380.357 451.759 377.755 486.575C362.223 566.733 262.04 558.46 249.116 474.624C247.353 452.474 238.623 434.729 221.431 390.851V390.845Z" fill="#4D4D4D"/>
<path d="M314.938 548.44C352.693 548.44 383.3 518.775 383.3 482.182C383.3 445.588 352.693 415.923 314.938 415.923C277.183 415.923 246.576 445.588 246.576 482.182C246.576 518.775 277.183 548.44 314.938 548.44Z" fill="#B3B3B3"/>
<path fill-rule="evenodd" clip-rule="evenodd" d="M245.738 406.473L275.34 402.201L254.2 473.971L245.738 406.473Z" fill="white"/>
<path fill-rule="evenodd" clip-rule="evenodd" d="M384.411 406.473L354.815 402.201L375.955 473.971L384.411 406.473Z" fill="white"/>
<path fill-rule="evenodd" clip-rule="evenodd" d="M192.363 376.595C177.356 357.709 179.273 337.969 195.558 337.882C187.239 324.675 194.993 307.2 208.664 316.211C214.062 296.212 224.538 289.035 240.087 299.798L302.298 353.529L316.677 402.232C322.029 425.869 212.379 461.475 203.358 406.504C189.55 395.683 184.192 379.737 192.368 376.601L192.363 376.595Z" fill="#EE8C1F"/>
<path fill-rule="evenodd" clip-rule="evenodd" d="M439.403 376.595C454.409 357.709 452.492 337.969 436.207 337.882C444.527 324.675 436.772 307.2 423.101 316.211C417.703 296.212 407.227 289.035 391.679 299.798L329.473 353.529L315.094 402.232C309.742 425.869 419.392 461.475 428.413 406.504C442.221 395.683 447.579 379.737 439.403 376.601V376.595Z" fill="#EE8C1F"/>
<path fill-rule="evenodd" clip-rule="evenodd" d="M274.433 349.216C282.324 308.797 356.176 317.289 356.461 348.363L316.714 400.479L274.433 349.216Z" fill="white"/>
<path fill-rule="evenodd" clip-rule="evenodd" d="M286.903 350.594C292.387 322.506 343.717 328.41 343.911 350L316.289 386.222L286.903 350.594Z" fill="black"/>
<path d="M223.448 346.262C227.639 346.262 231.037 342.447 231.037 337.742C231.037 333.036 227.639 329.221 223.448 329.221C219.257 329.221 215.859 333.036 215.859 337.742C215.859 342.447 219.257 346.262 223.448 346.262Z" fill="black"/>
<path d="M211.675 363.293C215.866 363.293 219.264 359.478 219.264 354.772C219.264 350.066 215.866 346.251 211.675 346.251C207.484 346.251 204.086 350.066 204.086 354.772C204.086 359.478 207.484 363.293 211.675 363.293Z" fill="black"/>
<path d="M236.961 370.12C241.152 370.12 244.549 366.305 244.549 361.6C244.549 356.894 241.152 353.079 236.961 353.079C232.769 353.079 229.372 356.894 229.372 361.6C229.372 366.305 232.769 370.12 236.961 370.12Z" fill="black"/>
<path d="M218.432 390.598C222.623 390.598 226.021 386.783 226.021 382.077C226.021 377.372 222.623 373.557 218.432 373.557C214.241 373.557 210.843 377.372 210.843 382.077C210.843 386.783 214.241 390.598 218.432 390.598Z" fill="black"/>
<path d="M412.133 341.127C416.324 341.127 419.721 337.312 419.721 332.606C419.721 327.9 416.324 324.085 412.133 324.085C407.941 324.085 404.544 327.9 404.544 332.606C404.544 337.312 407.941 341.127 412.133 341.127Z" fill="black"/>
<path d="M423.906 358.225C428.097 358.225 431.495 354.41 431.495 349.704C431.495 344.998 428.097 341.183 423.906 341.183C419.715 341.183 416.317 344.998 416.317 349.704C416.317 354.41 419.715 358.225 423.906 358.225Z" fill="black"/>
<path d="M398.623 364.983C402.814 364.983 406.212 361.168 406.212 356.462C406.212 351.756 402.814 347.941 398.623 347.941C394.431 347.941 391.034 351.756 391.034 356.462C391.034 361.168 394.431 364.983 398.623 364.983Z" fill="black"/>
<path d="M417.151 385.461C421.342 385.461 424.74 381.646 424.74 376.94C424.74 372.234 421.342 368.419 417.151 368.419C412.96 368.419 409.562 372.234 409.562 376.94C409.562 381.646 412.96 385.461 417.151 385.461Z" fill="black"/>
<path fill-rule="evenodd" clip-rule="evenodd" d="M128.029 177.111L117.741 198.372L81.0122 152.932L128.029 177.111Z" fill="white"/>
<path fill-rule="evenodd" clip-rule="evenodd" d="M515.081 178.167L525.368 199.423L562.103 153.988L515.081 178.167Z" fill="white"/>
<path d="M314.938 553.156C352.693 553.156 383.3 523.491 383.3 486.898C383.3 450.304 352.693 420.639 314.938 420.639C277.183 420.639 246.576 450.304 246.576 486.898C246.576 523.491 277.183 553.156 314.938 553.156Z" fill="black"/>
<path fill-rule="evenodd" clip-rule="evenodd" d="M425.58 244.805C418.847 244.027 415.093 245.884 413.113 249.302C420.799 255.235 425.021 253.868 425.58 244.805Z" fill="black"/>
<path fill-rule="evenodd" clip-rule="evenodd" d="M218.154 221.764C243.562 224.375 260.161 224.306 274.808 243.665L247.642 278.884L264.811 248.589C269.045 235.3 249.405 228.076 218.154 221.758V221.764Z" fill="#FFFFCC"/>
<path fill-rule="evenodd" clip-rule="evenodd" d="M418.293 221.764C392.885 224.375 376.286 224.306 361.639 243.665L388.805 278.884L371.636 248.589C367.402 235.3 387.042 228.076 418.293 221.758V221.764Z" fill="#FFFFCC"/>
<path fill-rule="evenodd" clip-rule="evenodd" d="M326.068 349.932L316.773 345.055L315.53 371.258L326.068 349.932Z" fill="white"/>
</svg>
